# xmcd CD database file
#
# Track frame offsets:
#	225
#	3976
#	32606
#	34983
#	56777
#	58743
#	82448
#	84296
#	98185
#	100413
#	123588
#	126194
#	146876
#	149859
#	166824
#	168611
#	181779
#	184178
#	194358
#	196853
#	218944
#	220548
#	234893
#	236844
#	252079
#	255355
#	285599
#	288510
#	314493
#	317288
#	329418
#
# Disc length: 4418 seconds
#
# Revision: 0
# Processed by: cddbd v1.5.2PL0 Copyright (c) Steve Scherf et al.
# Submitted via: WildFire CD Ripper 1.5
#
DISCID=d2113f1f
DTITLE=Blow Job - Radio
DYEAR=1900
DGENRE=Jazz
TTITLE0=Radio Blow Job 1
TTITLE1=Keine Ahnung
TTITLE2=Radio Blow Job 2
TTITLE3=Drie Nachten
TTITLE4=Radio Blow Job 3
TTITLE5=Weetzie Bat
TTITLE6=Radio Blow Job 4
TTITLE7=Norfolk In Chance
TTITLE8=Radio Blow Job 5
TTITLE9=Masterpiece Of Joy
TTITLE10=Radio Blow Job 6
TTITLE11=Speciale Nachten
TTITLE12=Radio Blow Job 7
TTITLE13=Radiodagen met J
TTITLE14=Radio Blow Job 8
TTITLE15=Medium Katze
TTITLE16=Radio Blow Job 9
TTITLE17=Vlekken in de lakens
TTITLE18=Radio Blow Job 10
TTITLE19=Hi, ik ben het
TTITLE20=Radio Blow Job 11
TTITLE21=Dumm gelaufen
TTITLE22=Radio Blow Job 12
TTITLE23=Das ist geil!
TTITLE24=Radio Blow Job 13
TTITLE25=Rette mich wer kann
TTITLE26=Radio Blow Job 14
TTITLE27=Room 38 Blues
TTITLE28=Radio Blow Job 15
TTITLE29=In den zwarten hond
TTITLE30=Radio Blow Job 16
EXTD=
EXTT0=
EXTT1=
EXTT2=
EXTT3=
EXTT4=
EXTT5=
EXTT6=
EXTT7=
EXTT8=
EXTT9=
EXTT10=
EXTT11=
EXTT12=
EXTT13=
EXTT14=
EXTT15=
EXTT16=
EXTT17=
EXTT18=
EXTT19=
EXTT20=
EXTT21=
EXTT22=
EXTT23=
EXTT24=
EXTT25=
EXTT26=
EXTT27=
EXTT28=
EXTT29=
EXTT30=
PLAYORDER=
